<svg xmlns="http://www.w3.org/2000/svg" viewBox="0 0 368.36 448.26"><defs><style>.cls-1{fill:#fff9e6;}.cls-2,.cls-26{fill:none;stroke-miterlimit:10;stroke-width:4px;}.cls-2{stroke:#f1e8d2;}.cls-3{fill:#e7dfc4;}.cls-4{fill:#fff19f;}.cls-5{fill:#f3e39d;}.cls-6{fill:#fddec9;}.cls-7{fill:#f1d2c2;}.cls-8{fill:#ffcf4a;}.cls-9{fill:#fcb514;}.cls-10{fill:#fff;}.cls-11{fill:#5c4b43;}.cls-12{fill:#aa9c94;}.cls-13{fill:#e5e4de;}.cls-14{fill:#d2d1cd;}.cls-15{fill:#fffdf0;}.cls-16{fill:#191919;}.cls-17{fill:#3b2512;}.cls-18{fill:#d7d7d7;}.cls-19{fill:#c0272d;}.cls-20{fill:#ec1e27;}.cls-21{fill:#efe093;}.cls-22{fill:#fff7d2;}.cls-23{fill:#f3ebcc;}.cls-24{fill:#886748;}.cls-25{fill:#664b35;}.cls-26{stroke:#e1d8bc;}</style></defs><title>Asset 18</title><g id="Layer_2" data-name="Layer 2"><g id="Layer_1-2" data-name="Layer 1"><path class="cls-1" d="M3.55,182.42s-8,24.73,0,45.47,18.35,5.58,18.35,5.58L65,227.89s-7.18-9.57-2.39-20.74Z"/><path class="cls-2" d="M58.63,235.29s-7.94-15.13-3.92-26.8"/><path class="cls-2" d="M49.51,237.44s-8.27-19.3-4.24-31"/><path class="cls-2" d="M39.59,233.52s-8.27-19.3-4.24-31"/><path class="cls-2" d="M30.13,237.13s-5.39-13.14-3-22.19"/><path class="cls-3" d="M90.49,223.9l-68.6,9.57s-3,5.1-8.3,5.34L69,240.65S78.53,239.06,90.49,223.9Z"/><path class="cls-1" d="M67.14,34.89s5.83-5.67,5-7.23-26.42-9.43-57.84,6.73l28.1,64.77s22-8.11,31.43-.68Z"/><path class="cls-2" d="M45.86,84.8s15.93-6.19,27.07-.87"/><path class="cls-2" d="M41.64,74.51s20.11-6,31.25-.73"/><path class="cls-2" d="M38.93,64.86s20.11-6,31.25-.73"/><path class="cls-2" d="M34.62,54.12s16.24-4.15,26.79.1"/><path class="cls-3" d="M74.37,104.68l-.58-6.2L67.14,34.89s4.93-4.36,5-7.23L88.33,87.17s.41,2.22-2.5,5.05S74.37,104.68,74.37,104.68Z"/><path class="cls-1" d="M56.53,308.15s-8.77,8-5.58,17.55,24.73,6.38,24.73,6.38Z"/><path class="cls-3" d="M119.55,316.92l11.17,75s-28.72,7.18-38.29,7.18-15.16-3.19-21.54-14.36l-19.94-59s6.38,10.37,24.73,6.38S119.55,316.92,119.55,316.92Z"/><path class="cls-1" d="M299,310.54s1.6,8,0,8.77-27.12-7.18-43.87-38.29l59.83-37.49s13.56,19.14,25.53,18.35Z"/><path class="cls-2" d="M309.67,257.35s9.63,14.12,21.82,16"/><path class="cls-2" d="M300.37,263.44s13.16,16.36,25.35,18.29"/><path class="cls-2" d="M292.67,269.86s13.16,16.36,25.35,18.29"/><path class="cls-2" d="M283,276.28s11,12.61,22.14,15.08"/><path class="cls-3" d="M344.43,257.1l-4,4.79L299,310.54s1.6,6.38,0,8.77L346,279.43s1.6-1.6.8-5.58S344.43,257.1,344.43,257.1Z"/><path class="cls-1" d="M252.48,0s3.19,14.36,10.37,17.55S279.6,9.57,284.39,0l12.76,18.35S294,43.87,270,50.26c0,0-22.34,4-37.49-29.51Z"/><path class="cls-1" d="M364.81,98.35s8,24.73,0,45.47-18.35,5.58-18.35,5.58l-43.08-5.58s7.18-9.57,2.39-20.74Z"/><path class="cls-2" d="M309.73,151.23s7.94-15.13,3.92-26.8"/><path class="cls-2" d="M318.84,153.37s8.27-19.3,4.24-31"/><path class="cls-2" d="M328.77,149.46s8.27-19.3,4.24-31"/><path class="cls-2" d="M338.23,153.07s5.39-13.14,3-22.19"/><path class="cls-3" d="M277.86,139.83l68.6,9.57s3,5.1,8.3,5.34l-55.36,1.84S289.83,155,277.86,139.83Z"/><path class="cls-4" d="M146.36,268.58S113.63,398.2,98.23,414.25c0,0,85.8,21.59,162.58.21,0,0-43.86-88.76-47.07-145.24Z"/><path class="cls-5" d="M151.85,260.23S124.55,400,111.7,417.31c0,0,71.58,23.28,135.63.22,0,0-36.59-95.71-39.27-156.61Z"/><path class="cls-6" d="M116.19,317.35s-1-15.9,5.78-28.24c7.06-12.83,13.21-22.78,25-27.39,2.21-.86,4.42-1.65,6.63-2.35l51.19,2.22s1.37,1,3.66,3c10.47,9,40.34,37.65,48.24,77.14l-12.19,8.34s-12.19-28.24-31.44-44.28c0,0,15.4,64.81,20.53,130.91,0,0,8.34,4.49,8.34,9.63H210.5S198.3,395,189.32,384.09H170.71s-19.25,39.79-22.46,62.25H118.09s.64-6.42,8.34-8.34c0,0,10.91-100.11,23.74-146.31,0,0,1.35-5.74-10.88,5.13-5.78,5.13-9,12.19-5.78,19.25Z"/><path class="cls-7" d="M183.51,273.07c-17.24-1.38-33.17-2.76-44.93-7.72,2.76-1.31,5.55-2.53,8.35-3.62,2.21-.86,4.42-1.65,6.63-2.35l51.19,2.22s1.37,1,3.66,3c1.44,1.24,3.25,2.86,5.31,4.81A74.42,74.42,0,0,1,183.51,273.07Z"/><path class="cls-7" d="M105.7,201.7s-13.89-1.15-12.61,14.9,25,17.33,25,17.33l-3.21-25.67Z"/><polygon class="cls-7" points="212.45 268.58 211.81 273.07 216.3 308.36 210.53 303.23 209.88 265.37 212.45 268.58"/><path class="cls-8" d="M212.15,261.36l-2.26,11.71-17.33-4.49v-9.21S204.14,256.71,212.15,261.36Z"/><path class="cls-7" d="M251.74,201.7s13.89-1.15,12.61,14.9-25,17.33-25,17.33l3.21-25.67Z"/><path class="cls-6" d="M102.08,194.14s13.48,27,16,40.43,26.31,30.8,58.4,28.24,59.68-5.13,64.17-30.8,14.12-41.07,14.12-41.07,9.63-43.64-5.78-75.72-53.26-34.65-72.51-35.29-55.83,12.19-68,35.29S96.3,164.62,102.08,194.14Z"/><path class="cls-7" d="M254.81,187.08s9.63-43.64-5.78-75.72S195.77,76.7,176.52,76.06s-55.83,12.19-68,35.29-12.19,49.41-6.42,78.93c0,0,2.73,5.46,6,12.69a37.5,37.5,0,0,0,30.42-19.56,37.48,37.48,0,0,0,56.13.13,37.62,37.62,0,0,0,25.47,1.18,37.52,37.52,0,0,0,27.26,18.65A96.66,96.66,0,0,1,254.81,187.08Z"/><path class="cls-8" d="M233.6,436.71l-24.84,2.63,1.74,7h31.44S241.94,441.2,233.6,436.71Z"/><polygon class="cls-9" points="241.82 445.05 210.39 445.53 210.5 446.33 241.94 446.33 241.82 445.05"/><path class="cls-8" d="M125.34,436.71l24.84,2.63-1.74,7H117S117,441.2,125.34,436.71Z"/><polygon class="cls-9" points="117.12 445.05 148.54 445.53 148.44 446.33 116.99 446.33 117.12 445.05"/><polygon class="cls-10" points="232.42 423.25 207.9 436.02 207.02 432.69 232.05 419.62 232.42 423.25"/><polygon class="cls-10" points="233.06 430.19 203.95 421.6 204.99 425.26 233.35 433.61 233.06 430.19"/><polygon class="cls-10" points="127.32 425.42 150.54 437.52 151.37 434.36 127.66 421.98 127.32 425.42"/><polygon class="cls-10" points="126.71 431.99 154.29 423.85 153.3 427.32 126.43 435.23 126.71 431.99"/><path class="cls-7" d="M131.18,395.37s17.28,6.58,30.35,8.23l2.7-7.62-31.93-8.93Z"/><path class="cls-7" d="M117.77,309.07l2.89-1.81-1.3-1.69,1.28-2.76,2.4,3,1.85-1.16,5.27,1.64.41,3.72,1.84.8a46.29,46.29,0,0,0-3.19,7.9l-14.07-3.59S116.08,312.83,117.77,309.07Z"/><rect class="cls-10" x="107.37" y="293.57" width="11.55" height="13.48" rx="5.78" ry="5.78" transform="translate(-142.71 106.59) rotate(-32.22)"/><rect class="cls-11" x="118.91" y="304.01" width="3.85" height="31.44" transform="translate(-151.88 113.68) rotate(-32.22)"/><rect class="cls-12" x="122.17" y="301.96" width="3.85" height="31.44" transform="translate(-150.28 115.1) rotate(-32.22)"/><rect class="cls-11" x="125.42" y="299.91" width="3.85" height="31.44" transform="translate(-148.69 116.52) rotate(-32.22)"/><rect class="cls-13" x="109.67" y="303.47" width="3.85" height="3.21" transform="matrix(0.85, -0.53, 0.53, 0.85, -145.49, 106.5)"/><rect class="cls-14" x="112.93" y="301.42" width="3.85" height="3.21" transform="translate(-143.89 107.92) rotate(-32.22)"/><polygon class="cls-15" points="138.15 339.98 137.7 328.45 127.94 334.6 138.15 339.98"/><rect class="cls-13" x="116.19" y="299.37" width="3.85" height="3.21" transform="translate(-142.29 109.34) rotate(-32.22)"/><circle class="cls-11" cx="129.22" cy="333.04" r="1.93" transform="translate(-157.68 120.2) rotate(-32.22)"/><circle class="cls-12" cx="132.48" cy="330.98" r="1.93" transform="translate(-156.08 121.62) rotate(-32.22)"/><circle class="cls-11" cx="135.73" cy="328.93" r="1.93" transform="translate(-154.49 123.04) rotate(-32.22)"/><polygon class="cls-16" points="138.15 339.98 138.02 336.59 135.15 338.4 138.15 339.98"/><path class="cls-7" d="M201.13,410.86s19.7,3.79,29.31,3.59l-1-7.9-31.23-2.93Z"/><polygon class="cls-6" points="114.11 315.29 124.4 308.84 129.67 310.48 130.08 314.2 133.69 315.76 133.96 319.31 136.41 321.48 135.01 324.39 124.69 330.44 119.89 328.37 120.77 325.29 116.57 323.99 118.18 320.81 113.81 319.29 114.11 315.29"/><circle class="cls-17" cx="148.28" cy="205.05" r="11.55"/><circle class="cls-17" cx="206.68" cy="205.05" r="11.55"/><path class="cls-7" d="M147,305.8l.64-2.57s32.09-17.33,43-34.65l.52-7.07,8.34-1L159.83,305.8Z"/><path class="cls-8" d="M138.65,341.73s62.89,7.06,82.78,5.78l2.13,14.18s-72.72-9.85-84.91-15.22Z"/><path class="cls-9" d="M138.65,341.91s59.8,9.4,83.16,7.5l-.72-3.83-82.45-5.78Z"/><path class="cls-10" d="M192.56,268.58S176.52,291,147,305.8c0,0-7.06,32.73-9.63,35.29,0,0,0,.64,1.28.64s76,7.7,82.61,5.46c0,0,2.1.32.18-2.25s-12.19-68-11.55-71.87S192.56,268.58,192.56,268.58Z"/><path class="cls-10" d="M138.65,346.22s-9,27.59-14.12,41.07c0,0,62.89,21.82,109.73,21.18,0,0-9-30.16-10.91-46.85Z"/><polygon class="cls-18" points="142.33 393.24 148.92 376.38 148.92 395.08 142.33 393.24"/><polygon class="cls-18" points="164.46 399.05 170.1 379.59 170.1 400.33 164.46 399.05"/><polygon class="cls-18" points="189.99 382.8 194.64 404.89 187.68 403.83 189.99 382.8"/><circle class="cls-19" cx="177.73" cy="238.42" r="7.16"/><circle class="cls-19" cx="187.45" cy="236.37" r="5.11"/><circle class="cls-19" cx="167.51" cy="236.37" r="5.11"/><rect class="cls-19" x="167.51" y="231.26" width="20.45" height="5.11"/><path class="cls-19" d="M165.78,241.18s6.33,4.4,12,4.4,11.45-4.4,11.45-4.4l-4.81-3.78-18.91-.51Z"/><path class="cls-20" d="M165.61,241l0,.13.15.07h0s6.33,4.4,12,4.4,11.45-4.4,11.45-4.4h0a5.09,5.09,0,0,0,1-.51c-.35-.17-7.4-3.53-12.86-3.46S165.61,241,165.61,241Z"/><polygon class="cls-18" points="216.09 407.68 214.08 384.73 221.65 408.09 216.09 407.68"/><circle class="cls-4" cx="113.46" cy="119.97" r="32.29"/><circle class="cls-4" cx="185.33" cy="81.43" r="28.47"/><circle class="cls-4" cx="224.57" cy="96.36" r="31.6"/><circle class="cls-4" cx="220.05" cy="135.6" r="28.47"/><circle class="cls-4" cx="166.58" cy="151.57" r="37.5"/><circle class="cls-4" cx="143.67" cy="91.15" r="29.17"/><circle class="cls-4" cx="172.83" cy="114.07" r="29.17"/><circle class="cls-4" cx="105.47" cy="158.51" r="37.5"/><circle class="cls-4" cx="252.69" cy="159.21" r="37.5"/><circle class="cls-4" cx="208.94" cy="141.85" r="37.5"/><circle class="cls-4" cx="240.93" cy="126.59" r="37.5" transform="matrix(0.13, -0.99, 0.99, 0.13, 85.16, 349.76)"/><path class="cls-21" d="M263.92,140.38a21.42,21.42,0,0,0-25-17.13c-.6.11-1.19.25-1.77.41a25.88,25.88,0,1,0-12,32.67,21.42,21.42,0,0,0,38.79-16Z"/><path class="cls-22" d="M239.4,360.34,267,346.22s5.13,78.29,22.46,81.5l-25.67,16.68S242,438.63,239.4,360.34Z"/><path class="cls-22" d="M265.94,443.42l26.34-15.88s6.35-4,10.75,1.15l1.93,2-26.36,17.57L277.27,445S273.52,435.45,265.94,443.42Z"/><path class="cls-23" d="M258.66,440.56s5.13,7.06,10.27,2.57l24.62-16.05s-6,1.93-9.21-3.2Z"/><path class="cls-8" d="M264.15,128.64l-6.31-17.75-6.31-17.75L248.3,94.3l3.44,9.68-36,12.79a1.71,1.71,0,1,0,1.15,3.23l36-12.79,1.15,3.23-37.32,13.27a1.71,1.71,0,1,0,1.15,3.23l37.32-13.27,1.15,3.23-36,12.79a1.71,1.71,0,1,0,1.15,3.23l36-12.79,3.44,9.68Z"/><path class="cls-24" d="M256.28,135.07l6.69-2.38A6.83,6.83,0,1,0,265.08,121l-13.59,4.83h0a5.14,5.14,0,0,0-2.39,1.76,15.83,15.83,0,0,1-7.28,5.31,15.37,15.37,0,0,1-7.25.76l-.42-.07-.83-.17a13.71,13.71,0,0,1-2-.62,15.34,15.34,0,0,1-7.89-22.2,15.66,15.66,0,0,1,2-2.75,15.37,15.37,0,0,1,6.11-4,15.77,15.77,0,0,1,9-.47,5.14,5.14,0,0,0,3-.15l13.59-4.83a6.85,6.85,0,1,0-9-7.71l-6.69,2.38A26.13,26.13,0,0,0,228,94.23a25,25,0,0,0-10.88,7.54,17,17,0,0,0-2,2.73,25.58,25.58,0,0,0,13.63,38.33,17,17,0,0,0,3.31.82,25,25,0,0,0,13.19-1,26.23,26.23,0,0,0,9.9-6.32Q255.74,135.71,256.28,135.07Z"/><path class="cls-25" d="M232.06,143.65a17,17,0,0,1-3.31-.82l2.52-10a15.65,15.65,0,0,0,3.29.87Z"/><path class="cls-25" d="M223.38,110.64l-8.26-6.15a17,17,0,0,1,2-2.73l8.21,6.13A15.64,15.64,0,0,0,223.38,110.64Z"/><path class="cls-4" d="M260.94,145.74a21.42,21.42,0,0,0-25-17.13c-.6.11-1.19.25-1.77.41a25.88,25.88,0,1,0-12,32.67,21.42,21.42,0,0,0,38.79-16Z"/><path class="cls-21" d="M125.34,121.19a21.43,21.43,0,0,1,29.19-23.31,21.42,21.42,0,1,0-21.39,36.61A21.34,21.34,0,0,1,125.34,121.19Z"/><polygon class="cls-7" points="246.9 337.93 241.97 344.94 244.54 350.07 256.73 341.73 256.09 337.88 246.9 337.93"/><polygon class="cls-6" points="247.54 341.14 240.43 350.79 245.2 358.1 249.11 356.85 251.94 362.04 263.62 354.82 258.28 340.78 247.54 341.14"/><rect class="cls-7" x="247.46" y="349" width="7.97" height="7.97" transform="translate(-142.8 173.01) rotate(-30)"/><rect class="cls-6" x="248.98" y="350.52" width="4.93" height="4.93" transform="translate(-142.8 173.01) rotate(-30)"/><line class="cls-26" x1="244.54" y1="367.4" x2="263.79" y2="358.42"/><line class="cls-26" x1="245.18" y1="374.46" x2="264.43" y2="365.48"/><line class="cls-26" x1="245.82" y1="381.52" x2="265.07" y2="372.53"/><line class="cls-26" x1="246.46" y1="388.58" x2="265.71" y2="379.59"/><line class="cls-26" x1="247.75" y1="395.64" x2="257.37" y2="391.14"/></g></g></svg>