<svg xmlns="http://www.w3.org/2000/svg" viewBox="0 0 329.76 447.9"><defs><style>.cls-1{fill:#f6a3a7;}.cls-2{fill:#f7b5b9;}.cls-3{fill:#fad5d7;}.cls-4{fill:#fce6e7;}.cls-5{fill:#bec5e4;}.cls-6{fill:#ced3ea;}.cls-7{fill:#e4e6f3;}.cls-8{fill:#eef0f8;}.cls-9{fill:#d4e7b7;}.cls-10{fill:#dfecc8;}.cls-11{fill:#e8f1d6;}.cls-12{fill:#f0f6e5;}.cls-13{fill:#f9b9a3;}.cls-14{fill:#fac8b5;}.cls-15{fill:#fce0d5;}.cls-16{fill:#fdece5;}.cls-17{fill:#8fc63e;}.cls-18{fill:#80ad40;}.cls-19,.cls-37{fill:#d7d7d7;}.cls-20{fill:#fddec9;}.cls-21{fill:#f1d2c2;}.cls-22{fill:#b1d254;}.cls-23{fill:#e5e5e4;}.cls-24{fill:#fff;}.cls-25{fill:#5c4b43;}.cls-26{fill:#e5e4de;}.cls-27{fill:#ddd9cf;}.cls-28{fill:#3b2512;}.cls-29{fill:#d83f3f;}.cls-30{fill:#715d55;}.cls-31{fill:#c0272d;}.cls-32{fill:#ec1e27;}.cls-33{fill:#ef4f4e;}.cls-34{fill:#d3d3d3;}.cls-35{fill:#f2f2f2;}.cls-36{fill:#ffe8b5;}.cls-37{opacity:0.43;}.cls-38{fill:#ffcf4a;}.cls-39{fill:#cccbcb;}.cls-40{fill:#ececea;}.cls-41{fill:#e8553a;}.cls-42{fill:#40b5d0;}.cls-43{fill:#ffe75f;}</style></defs><title>Asset 17</title><g id="Layer_2" data-name="Layer 2"><g id="Layer_1-2" data-name="Layer 1"><path class="cls-1" d="M26.64,209.54h1.26a30,30,0,0,1,30,30v17.54a0,0,0,0,1,0,0H-3.36a0,0,0,0,1,0,0V239.54A30,30,0,0,1,26.64,209.54Z" transform="translate(-118.3 48.96) rotate(-31.63)"/><rect class="cls-2" x="21.58" y="250.02" width="61.26" height="47.54" transform="translate(-135.83 68.05) rotate(-31.63)"/><rect class="cls-3" x="46.51" y="290.5" width="61.26" height="47.54" transform="translate(-153.35 87.14) rotate(-31.63)"/><rect class="cls-4" x="71.44" y="330.98" width="61.26" height="47.54" transform="translate(-170.88 106.22) rotate(-31.63)"/><path class="cls-5" d="M77.3,163.85h1.26a30,30,0,0,1,30,30v17.54a0,0,0,0,1,0,0H47.3a0,0,0,0,1,0,0V193.85a30,30,0,0,1,30-30Z" transform="translate(-52.22 31.62) rotate(-17.28)"/><rect class="cls-6" x="61.42" y="209.24" width="61.26" height="47.54" transform="translate(-65.07 37.87) rotate(-17.28)"/><rect class="cls-7" x="75.55" y="254.64" width="61.26" height="47.54" transform="translate(-77.91 44.11) rotate(-17.28)"/><rect class="cls-8" x="89.67" y="300.04" width="61.26" height="47.54" transform="translate(-90.76 50.36) rotate(-17.28)"/><path class="cls-9" d="M271.86,209.54h61.26a0,0,0,0,1,0,0v17.54a30,30,0,0,1-30,30h-1.26a30,30,0,0,1-30-30V209.54A0,0,0,0,1,271.86,209.54Z" transform="translate(437.69 590.59) rotate(-148.37)"/><rect class="cls-10" x="246.92" y="250.02" width="61.26" height="47.54" transform="translate(370.3 652.46) rotate(-148.37)"/><rect class="cls-11" x="221.99" y="290.5" width="61.26" height="47.54" transform="translate(302.91 714.34) rotate(-148.37)"/><rect class="cls-12" x="197.06" y="330.98" width="61.26" height="47.54" transform="translate(235.52 776.21) rotate(-148.37)"/><path class="cls-13" d="M221.2,163.85h61.26a0,0,0,0,1,0,0v17.54a30,30,0,0,1-30,30H251.2a30,30,0,0,1-30-30V163.85A0,0,0,0,1,221.2,163.85Z" transform="translate(436.55 441.58) rotate(-162.72)"/><rect class="cls-14" x="207.08" y="209.24" width="61.26" height="47.54" transform="translate(395.46 526.13) rotate(-162.72)"/><rect class="cls-15" x="192.95" y="254.64" width="61.26" height="47.54" transform="translate(354.37 610.67) rotate(-162.72)"/><rect class="cls-16" x="178.83" y="300.04" width="61.26" height="47.54" transform="matrix(-0.95, -0.3, 0.3, -0.95, 313.27, 695.22)"/><path class="cls-17" d="M236.12,399.15c-4.49-22.46,16-49.41-1.93-59s9.63-45.56,0-61.6-6.81-39.93-6.81-39.93l-60.6-10v-.11l-.32.05-.32-.05v.11l-60.6,10s2.79,23.88-6.81,39.93,18,52,0,61.6,2.57,36.58-1.93,59-14.12,27.59-14.12,27.59H250.24S240.61,421.61,236.12,399.15Z"/><path class="cls-18" d="M220.43,397.86c-3.56-22.46,12.72-49.41-1.53-59s7.63-45.56,0-61.6-5.4-39.93-5.4-39.93l-48.06-10v-.11l-.25.05-.25-.05v.11l-48.06,10s2.22,23.88-5.4,39.93,14.27,52,0,61.6,2,36.58-1.53,59-11.2,27.59-11.2,27.59H231.63S224,420.32,220.43,397.86Z"/><polygon class="cls-19" points="89.81 447.28 243.82 447.28 163.6 358.08 89.81 447.28"/><path class="cls-20" d="M269.49,303.53S231,275,199.54,262.67c-2.21-.86-4.42-1.65-6.63-2.35l-51.19,2.22s-1.37,1-3.66,3c-10.47,9-40.34,37.65-48.24,77.14L102,351s18-43,37.22-59c0,0,1.84,31.32-2.57,55.19-4.54,24.58-15.4,57.75-23.74,90.48,0,0-8.34,4.49-8.34,9.63H136s16-63.53,25-74.44h12.83s21.18,52,24.39,74.44h30.16s-.64-6.42-8.34-8.34c0,0-16.3-47-23.74-91.77-3.34-20-.64-39.14-1.28-55.83,0,0,44.92,4.49,64.17,22.46Z"/><path class="cls-20" d="M269.49,303.53S231,275,199.54,262.67c-2.21-.86-4.42-1.65-6.63-2.35l-51.19,2.22s-1.37,1-3.66,3c-10.47,9-40.34,37.65-48.24,77.14L102,351s18-43,37.22-59c0,0,1.84,31.32-2.57,55.19-4.54,24.58-15.4,57.75-23.74,90.48,0,0-8.34,4.49-8.34,9.63H136s16-63.53,25-74.44h12.83s21.18,52,24.39,74.44h30.16s-.64-6.42-8.34-8.34c0,0-16.3-47-23.74-91.77-3.34-20-.64-39.14-1.28-55.83,0,0,44.92,4.49,64.17,22.46Z"/><path class="cls-21" d="M163,274c17.24-1.38,33.17-2.76,44.93-7.72-2.76-1.31-5.55-2.53-8.35-3.62-2.21-.86-4.42-1.65-6.63-2.35l-51.19,2.22s-1.37,1-3.66,3c-1.44,1.24-3.25,2.86-5.31,4.81A74.42,74.42,0,0,0,163,274Z"/><path class="cls-22" d="M202.11,248.34s-12.19,23.74,3.21,47.49a44.1,44.1,0,0,1,1.93,45.56s23.61-31.52,7-53.94,12.54-53.37,12.54-53.37Z"/><path class="cls-22" d="M207.24,219.47S195,243.21,210.45,267a44.1,44.1,0,0,1,1.93,45.56s23.61-31.52,7-53.94,12.54-53.37,12.54-53.37Z"/><path class="cls-22" d="M140.05,228.45s12.19,23.74-3.21,47.49a44.1,44.1,0,0,0-1.93,45.56s-23.61-31.52-7-53.94-12.54-53.37-12.54-53.37Z"/><path class="cls-22" d="M105.85,196.37s-12.19,23.74,3.21,47.49A44.1,44.1,0,0,1,111,289.41s23.61-31.52,7-53.94,12.54-53.37,12.54-53.37Z"/><path class="cls-20" d="M88.52,195.08s9.38,28.44,16,40.43c6.42,11.55,26.31,30.8,58.4,28.24s56.47-5.13,64.17-30.8c7.49-25,14.12-41.07,14.12-41.07S243,171.5,227.6,139.41,182.21,81.5,163,80.86s-55.83,12.19-68,35.29S82.75,165.56,88.52,195.08Z"/><path class="cls-23" d="M112.91,437.65l24.84,2.63-1.74,7H104.57S104.57,442.14,112.91,437.65Z"/><path class="cls-23" d="M221.17,437.65l-24.84,2.63,1.74,7h31.44S229.51,442.14,221.17,437.65Z"/><polygon class="cls-24" points="115.48 424.97 139.27 437.37 140.13 434.14 115.83 421.44 115.48 424.97"/><polygon class="cls-24" points="114.09 431.13 143.2 422.54 142.16 426.2 113.55 434.44 114.09 431.13"/><polygon class="cls-24" points="216.22 426.74 195.69 437.65 195.05 435.08 215.58 424.17 216.22 426.74"/><polygon class="cls-24" points="218.76 432.61 191.84 425.13 192.82 428.41 219.43 435.98 218.76 432.61"/><path class="cls-21" d="M264.17,299.71l-3.41-.08.26-2.12-2.51-1.73-.55,3.78-2.18-.05-3.7,4.1,1.55,3.41-1.17,1.62a46.29,46.29,0,0,1,6.77,5.17l10.27-10.27S267.54,302.09,264.17,299.71Z"/><rect class="cls-25" x="255.41" y="265.03" width="7.61" height="182.89" transform="translate(32.58 -21.55) rotate(5.08)"/><path class="cls-24" d="M283.46,247.59h0v-.05a14.4,14.4,0,0,0-.54-2.17l-3.12-12.64-.17,0-6.3-15.08-9.91,13-.32,0L256.88,242a14.4,14.4,0,0,0-1.07,2l0,0h0a14.54,14.54,0,1,0,27.67,3.55Z"/><polygon class="cls-26" points="261.65 266.3 273.18 267.78 272.45 264.02 262.96 263.05 261.65 266.3"/><path class="cls-27" d="M273.2,218S263,230.4,260,236.27l6.22-6.06-1,13.76,5.45-12.42,1.26,20.22,2.34-18.22,3.38,9.69-.25-10.06,3.16,2.72S275.18,220.56,273.2,218Z"/><polygon class="cls-20" points="270.49 303.19 258.34 302.9 254.64 306.99 256.19 310.4 253.89 313.59 255.46 316.78 254.46 319.89 257.15 321.68 269.12 321.63 272.18 317.4 269.85 315.19 272.81 311.93 269.8 310.02 272.79 306.49 270.49 303.19"/><circle class="cls-28" cx="134.73" cy="205.99" r="11.55"/><circle class="cls-28" cx="193.12" cy="205.99" r="11.55"/><path class="cls-21" d="M241,138.91c-6.82-20.83-24.15-50.35-77.41-49.07-53.26-1.28-68.66,28.24-75.48,49.07s26.07,88.26,26.07,88.26c-14.12-33.37-3.21-43.64,17.33-49.41s32.73,14.76,32.73,14.76,12.83-20.53,33.37-14.76,31.44,16,17.33,49.41C214.94,227.17,247.83,159.75,241,138.91Z"/><path class="cls-25" d="M214.94,252.84l29.52-34v-46.2s3.37-21.22-3.45-42.05S216.87,80.21,163.6,81.5c-53.26-1.28-68.66,28.24-75.48,49.07s-2.81,42.05-2.81,42.05l-.64,46.2,29.52,34v-34c-14.12-33.37-3.21-43.64,17.33-49.41s32.73,14.76,32.73,14.76,12.83-20.53,33.37-14.76,31.44,16,17.33,49.41Z"/><polygon class="cls-29" points="131.79 85.23 137.29 0 193.12 0 195.69 85.23 131.79 85.23"/><polygon class="cls-28" points="146.28 72.51 150.77 141.18 175.16 141.18 181.57 72.51 146.28 72.51"/><polygon class="cls-30" points="146.28 68.66 150.77 137.33 175.16 137.33 181.57 68.66 146.28 68.66"/><circle class="cls-31" cx="164.18" cy="239.36" r="7.16"/><circle class="cls-31" cx="173.89" cy="237.32" r="5.11"/><circle class="cls-31" cx="153.96" cy="237.32" r="5.11"/><rect class="cls-31" x="153.96" y="232.2" width="20.45" height="5.11"/><path class="cls-31" d="M152.23,242.12s6.33,4.4,12,4.4,11.45-4.4,11.45-4.4l-4.81-3.78-18.91-.51Z"/><path class="cls-32" d="M152.05,241.93l0,.13.15.07h0s6.33,4.4,12,4.4,11.45-4.4,11.45-4.4h0a5.09,5.09,0,0,0,1-.51c-.35-.17-7.4-3.53-12.86-3.46S152.05,241.93,152.05,241.93Z"/><path class="cls-28" d="M148.85,166.2c-3.85-1.93-14.76-2.57-27,1.93s-16,12.19-17.33,23.1,6.56,27.93,6.56,27.93v30.15l3.06,3.53v-34c-14.12-33.37-3.21-43.64,17.33-49.41s32.73,14.76,32.73,14.76V178.4C163,175.83,152.7,168.13,148.85,166.2Z"/><path class="cls-28" d="M179.51,166.2c3.85-1.93,14.76-2.57,27,1.93s16,12.19,17.33,23.1-6.56,27.93-6.56,27.93v30.15l-3.06,3.53v-34c14.12-33.37,3.21-43.64-17.33-49.41s-32.73,14.76-32.73,14.76V178.4C165.39,175.83,175.66,168.13,179.51,166.2Z"/><polygon class="cls-33" points="146.28 68.66 181.57 68.66 193.12 0 137.29 0 146.28 68.66"/><path class="cls-21" d="M161,372.84h12.83s6.12,15,12.29,32.43a256,256,0,0,0,20.37,21.34c4.22,3.92,8.62,7.71,13.2,11.29-2.41-7.12-16.59-49.85-23.39-90.72a128.84,128.84,0,0,1-1.58-16.68h-56a165.9,165.9,0,0,1-2.11,16.68c-4.54,24.58-15.4,57.75-23.74,90.48,0,0-4.91,2.65-7.2,6.2a198.94,198.94,0,0,0,21.23-17.25,257.43,257.43,0,0,0,21.25-22.37C152.61,390.28,157.4,377.25,161,372.84Z"/><path class="cls-24" d="M126.5,430.71l12.77,6.66.85-3.23-9.07-4.74,11.1-3.2,1-3.66-16.15,4.77-.56-.29q-3,2.79-6.16,5.47Z"/><path class="cls-34" d="M106.8,442.43a12.5,12.5,0,0,0-1,1.33q4.12-2.89,8.06-6l-1-.11-.14.08A25.12,25.12,0,0,0,106.8,442.43Z"/><path class="cls-35" d="M116.15,425.32l6.38,3.32L114.64,431q-.45,1.71-.89,3.41l6.58-1.9q3.14-2.68,6.16-5.47L117,422.07Z"/><path class="cls-35" d="M216.19,435.05l2.85.81c-.32-1-.7-2.13-1.15-3.49l-7.19-2Q213.4,432.75,216.19,435.05Z"/><path class="cls-35" d="M216.11,426.8l-.78-2.49-7.15,3.8c.67.61,1.35,1.22,2,1.83Z"/><path class="cls-24" d="M195.5,324.07H137.94s39,87.27,105.73,123.21C243.66,447.28,212.22,407.49,195.5,324.07Z"/><path class="cls-36" d="M139.78,324.07c6.85,14.3,42.86,85,100.45,118.35,2.17,3.25,3.44,4.86,3.44,4.86-66.74-35.94-105.73-123.21-105.73-123.21Z"/><path class="cls-35" d="M197.25,332.4q-.9-4.09-1.75-8.33H143.75c-.38,1.91-.78,3.78-1.17,5.64a363.79,363.79,0,0,0,28.29,46.23A364.27,364.27,0,0,0,197.25,332.4Z"/><path class="cls-37" d="M186.93,324.07s10.41,45.69,16,53.49c0,0-12.53-16.72-18-53.49Z"/><path class="cls-37" d="M174,324.07s7.15,31.41,11,36.77c0,0-8.62-11.49-12.35-36.77Z"/><path class="cls-24" d="M138,324.07h57.56s-39,87.27-105.73,123.21C89.81,447.28,121.25,407.49,138,324.07Z"/><path class="cls-36" d="M193.69,324.07c-6.85,14.3-42.86,85-100.45,118.35-2.17,3.25-3.44,4.86-3.44,4.86,66.74-35.94,105.73-123.21,105.73-123.21Z"/><polygon class="cls-38" points="241.25 282.36 234.84 302.25 248.31 307.38 254.09 290.7 241.25 282.36"/><polygon class="cls-21" points="240.67 284.16 239.44 283.4 233.82 299.92 235.41 300.48 240.67 284.16"/><path class="cls-21" d="M137.94,286.85s2.56-7.43,12-11.48c0,0,13.5,6.08,16.88,11.48,0,0,10.13-11.48,17.55-12.83a75.27,75.27,0,0,1,12.15,14.85s2.53,1.35-.09,12.15V321.5H137.12V300.34A15.16,15.16,0,0,1,137.94,286.85Z"/><path class="cls-34" d="M137.94,289.41s2.56-7.43,12-11.48c0,0,13.5,6.08,16.88,11.48,0,0,10.13-11.48,17.55-12.83a75.27,75.27,0,0,1,12.15,14.85s2.53,1.35-.09,12.15v20.48H137.12V302.91A15.16,15.16,0,0,1,137.94,289.41Z"/><path class="cls-23" d="M137.94,294.55s2.56-6.79,12-10.84c0,0,13.5,6.08,16.88,11.48,0,0,10.13-11.48,17.55-12.83a75.27,75.27,0,0,1,12.15,14.85s2.53,1.35-.09,12.15v14.71H137.12V308.68S133.89,301.3,137.94,294.55Z"/><path class="cls-35" d="M139.78,324.07h-1.84l0,.05c-.28,1.38-.56,2.75-.84,4.1v.33h54.36c.92-1.83,1.66-3.34,2.21-4.49Z"/><path class="cls-36" d="M191.48,328.56c-10.56,20.93-45.28,83.19-98.23,113.86-2.17,3.25-3.44,4.86-3.44,4.86,57.68-31.06,94.62-100.44,103.59-118.72Z"/><path class="cls-36" d="M195.53,324.07h-1.84c-.55,1.15-1.29,2.66-2.21,4.49h1.92C194.81,325.69,195.53,324.07,195.53,324.07Z"/><path class="cls-37" d="M146.22,324.07s-10.41,45.69-16,53.49c0,0,12.53-16.72,18-53.49Z"/><path class="cls-37" d="M159.19,324.07s-7.15,31.41-11,36.77c0,0,8.62-11.49,12.35-36.77Z"/><path class="cls-37" d="M176.1,324.07s-5.11,16.72-7.85,19.58c0,0,6.16-6.12,8.83-19.58Z"/><polygon class="cls-39" points="152.13 447.28 157.3 416.47 160.4 447.28 152.13 447.28"/><polygon class="cls-39" points="174.59 447.28 179.76 416.47 182.86 447.28 174.59 447.28"/><path class="cls-40" d="M57.6,297.79A58.77,58.77,0,0,0,123.73,395c.63-.43,1.23-.9,1.81-1.38a7.32,7.32,0,0,0,1.14-.63l21-14.31a7.38,7.38,0,1,0-8.3-12.2l-1.89,1.29a14.8,14.8,0,0,1-20.5-3.9h0a14.8,14.8,0,0,1,3.9-20.5s13.25-18.29,13.48-23.29C136,284.8,84.44,279.53,57.6,297.79Z"/><circle class="cls-41" cx="64.21" cy="367.84" r="11.64" transform="translate(-195.8 99.85) rotate(-34.23)"/><circle class="cls-42" cx="64.8" cy="330.62" r="11.64" transform="translate(-174.76 93.73) rotate(-34.23)"/><circle class="cls-40" cx="108.49" cy="320.21" r="25.99" transform="translate(-161.34 116.5) rotate(-34.23)"/><circle class="cls-43" cx="96.84" cy="313.49" r="11.64" transform="translate(-159.58 108.78) rotate(-34.23)"/></g></g></svg>