<svg xmlns="http://www.w3.org/2000/svg" viewBox="0 0 306.15 374.67"><defs><style>.cls-1{fill:#4ba775;}.cls-2{fill:#3f8c60;}.cls-3{fill:#efefef;}.cls-4{fill:#83cff0;}.cls-22,.cls-5{fill:#75b7ce;}.cls-6{fill:#f1e8d2;}.cls-7{fill:#fff9e6;}.cls-8{fill:#fddec9;}.cls-9{fill:#fff;}.cls-10{fill:#f2f2f2;}.cls-11{fill:#f1d2c2;}.cls-12{fill:#ffcf4a;}.cls-13{fill:#fcb514;}.cls-14{fill:#3b2512;}.cls-15{fill:#c0272d;}.cls-16{fill:#ec1e27;}.cls-17{fill:#dff2f8;}.cls-18{fill:#d1e3e8;}.cls-19{fill:#ffe8b5;}.cls-20{fill:#eed9b9;}.cls-21{fill:#dddddc;opacity:0.33;}.cls-22{opacity:0.52;}.cls-23{fill:#282827;}.cls-24{fill:#3f4040;}.cls-25{fill:#4f4f4f;}.cls-26{fill:#7a441c;}.cls-27{fill:#5f3313;}.cls-28{opacity:0.4;}.cls-29{fill:#7fd1ec;stroke:#fff;stroke-width:4px;}.cls-29,.cls-30{stroke-miterlimit:10;}.cls-30{fill:none;stroke:#28aae1;stroke-width:2px;opacity:0.3;}.cls-31{fill:#ea9d22;}.cls-32{fill:#ffe161;}.cls-33{fill:#e74525;}</style></defs><title>Asset 19</title><g id="Layer_2" data-name="Layer 2"><g id="Layer_1-2" data-name="Layer 1"><rect class="cls-1" x="252.84" y="353.49" width="53.32" height="19.89"/><rect class="cls-2" x="252.84" y="356.7" width="53.32" height="1.93"/><rect class="cls-2" x="252.84" y="360.55" width="53.32" height="1.93"/><rect class="cls-2" x="252.84" y="364.4" width="53.32" height="1.93"/><rect class="cls-2" x="252.84" y="368.25" width="53.32" height="1.93"/><rect class="cls-3" x="272.14" y="353.49" width="14.12" height="19.89"/><rect class="cls-1" x="195.72" y="353.49" width="53.32" height="19.89"/><rect class="cls-2" x="195.72" y="356.7" width="53.32" height="1.93"/><rect class="cls-2" x="195.72" y="360.55" width="53.32" height="1.93"/><rect class="cls-2" x="195.72" y="364.4" width="53.32" height="1.93"/><rect class="cls-2" x="195.72" y="368.25" width="53.32" height="1.93"/><rect class="cls-3" x="215.03" y="353.49" width="14.12" height="19.89"/><rect class="cls-1" x="225.88" y="331.68" width="53.32" height="19.89"/><rect class="cls-2" x="225.88" y="334.88" width="53.32" height="1.93"/><rect class="cls-2" x="225.88" y="338.73" width="53.32" height="1.93"/><rect class="cls-2" x="225.88" y="342.59" width="53.32" height="1.93"/><rect class="cls-2" x="225.88" y="346.44" width="53.32" height="1.93"/><rect class="cls-3" x="245.19" y="331.68" width="14.12" height="19.89"/><rect class="cls-1" x="57.11" y="353.49" width="53.32" height="19.89"/><rect class="cls-2" x="57.11" y="356.7" width="53.32" height="1.93"/><rect class="cls-2" x="57.11" y="360.55" width="53.32" height="1.93"/><rect class="cls-2" x="57.11" y="364.4" width="53.32" height="1.93"/><rect class="cls-2" x="57.11" y="368.25" width="53.32" height="1.93"/><rect class="cls-3" x="76.42" y="353.49" width="14.12" height="19.89"/><rect class="cls-1" y="353.49" width="53.32" height="19.89"/><rect class="cls-2" y="356.7" width="53.32" height="1.93"/><rect class="cls-2" y="360.55" width="53.32" height="1.93"/><rect class="cls-2" y="364.4" width="53.32" height="1.93"/><rect class="cls-2" y="368.25" width="53.32" height="1.93"/><rect class="cls-3" x="19.3" y="353.49" width="14.12" height="19.89"/><rect class="cls-1" x="30.16" y="331.68" width="53.32" height="19.89"/><rect class="cls-2" x="30.16" y="334.88" width="53.32" height="1.93"/><rect class="cls-2" x="30.16" y="338.73" width="53.32" height="1.93"/><rect class="cls-2" x="30.16" y="342.59" width="53.32" height="1.93"/><rect class="cls-2" x="30.16" y="346.44" width="53.32" height="1.93"/><rect class="cls-3" x="49.47" y="331.68" width="14.12" height="19.89"/><path class="cls-4" d="M117.43,196.92S84.71,326.54,69.31,342.59c0,0,85.8,21.59,162.58.21,0,0-43.86-88.76-47.07-145.24Z"/><path class="cls-5" d="M122.93,188.57S95.63,328.35,82.78,345.65c0,0,71.58,23.28,135.63.22,0,0-36.59-95.71-39.27-156.61Z"/><path class="cls-6" d="M190.79,369.91s-7.57-6.59-10.67-13.61-12-6.16-22.69-5.67c0,0-5.89,2.61,2.25,4.63,0,0-5.79,3.46,4,5,0,0-4.73,7.56,5.62,4.52,0,0-7,7.35,4.33,3.13,0,0-4.39,5.7,3.68,2.44,0,0,.17,6.12,5.21,1.11C182.51,371.46,186.84,374.6,190.79,369.91Z"/><path class="cls-7" d="M188,368.47s-6.13-5.87-8.55-11.85-9.84-5.75-18.69-5.91c0,0-4.94,1.85,1.77,4,0,0-4.88,2.56,3.2,4.35,0,0-4.09,6,4.56,4,0,0-6,5.72,3.52,2.83,0,0-3.77,4.49,3,2.22,0,0,0,5.08,4.3,1.2A5,5,0,0,0,188,368.47Z"/><path class="cls-6" d="M113,369.91s7.57-6.59,10.67-13.61,12-6.16,22.69-5.67c0,0,5.89,2.61-2.25,4.63,0,0,5.79,3.46-4,5,0,0,4.73,7.56-5.62,4.52,0,0,7,7.35-4.33,3.13,0,0,4.39,5.7-3.68,2.44,0,0-.17,6.12-5.21,1.11C121.29,371.46,117,374.6,113,369.91Z"/><path class="cls-7" d="M115.76,368.47s6.13-5.87,8.55-11.85,9.84-5.75,18.69-5.91c0,0,4.94,1.85-1.77,4,0,0,4.88,2.56-3.2,4.35,0,0,4.09,6-4.56,4,0,0,6,5.72-3.52,2.83,0,0,3.77,4.49-3,2.22,0,0,0,5.08-4.3,1.2A5,5,0,0,1,115.76,368.47Z"/><path class="cls-8" d="M87.27,245.69s-1-15.9,5.78-28.24c7.06-12.83,13.21-22.78,25-27.39,2.21-.86,4.42-1.65,6.63-2.35l49.86.22a65,65,0,0,0,5,5c10.47,9,26.45,17.46,54.66,41.84L222,243.12a127.71,127.71,0,0,0-38.47-18s16,73.8,21.15,139.89c0,0,8.34,4.49,8.34,9.63H181.58s-12.19-51.34-21.18-62.25H141.79s-19.25,39.79-22.46,62.25H89.17s.64-6.42,8.34-8.34c0,0,10.91-100.11,23.74-146.31,0,0,1.35-5.74-10.88,5.13-5.78,5.13-9,12.19-5.78,19.25Z"/><polygon class="cls-9" points="120.64 211.9 110.38 268.15 191.87 268.15 180.62 206.33 120.64 211.9"/><path class="cls-10" d="M177.76,219.38a15.25,15.25,0,0,0,3.63-8.85l-.76-4.2-60,5.57-.52,2.86a22.78,22.78,0,0,0,10.79,10.39C149.52,234.14,170.05,227.72,177.76,219.38Z"/><path class="cls-11" d="M154.59,201.41c-17.24-1.38-33.17-2.76-44.93-7.72,2.76-1.31,5.55-2.53,8.35-3.62,2.21-.86,4.42-1.65,6.63-2.35l51.19,2.22s1.37,1,3.66,3c1.44,1.24,3.25,2.86,5.31,4.81A74.42,74.42,0,0,1,154.59,201.41Z"/><path class="cls-11" d="M76.78,130s-13.89-1.15-12.61,14.9,25,17.33,25,17.33L86,136.59Z"/><path class="cls-11" d="M222.82,130s13.89-1.15,12.61,14.9-25,17.33-25,17.33l3.21-25.67Z"/><path class="cls-4" d="M118.08,189.86s-5.78,22.46,12.83,31.44,39.14,2.57,46.85-5.78c6.33-6.86,3.12-19.79,1.78-24.17a5,5,0,0,0-1.64-2.42h0a3.32,3.32,0,0,0-4.13,0h0a5,5,0,0,0-1.57,2.12c-1.11,2.89-5,10.25-16.25,12.3-14.12,2.57-28.85-7.06-31.43-13.48S118.08,189.86,118.08,189.86Z"/><path class="cls-5" d="M122.31,192.26s6,13,18.22,16.85C140.54,209.11,127.83,209.43,122.31,192.26Z"/><path class="cls-5" d="M120.64,195s4.49,19.25,21.18,25.67C141.82,220.66,128.34,214.24,120.64,195Z"/><path class="cls-5" d="M178.4,197.56s.26,6.69-5.78,12.83C172.62,210.39,179.68,207.18,178.4,197.56Z"/><path class="cls-5" d="M175.83,193.07s-1.28,9-11.55,16C164.28,209.11,175.19,205.26,175.83,193.07Z"/><circle class="cls-12" cx="122.25" cy="192.74" r="5.45"/><circle class="cls-13" cx="122.25" cy="192.74" r="3.78"/><circle class="cls-12" cx="176.79" cy="192.74" r="5.45"/><circle class="cls-13" cx="176.79" cy="192.74" r="3.78"/><path class="cls-8" d="M73.16,122.48s13.48,27,16,40.43,26.31,30.8,58.4,28.24,59.68-5.13,64.17-30.8,14.12-41.07,14.12-41.07,9.63-43.64-5.78-75.72S166.85,8.89,147.59,8.25s-55.83,12.19-68,35.29S67.38,93,73.16,122.48Z"/><path class="cls-4" d="M204.68,365l-24.84,2.63,1.74,7H213S213,369.54,204.68,365Z"/><polygon class="cls-5" points="212.9 373.39 181.47 373.87 181.58 374.67 213.02 374.67 212.9 373.39"/><path class="cls-4" d="M96.41,365l24.84,2.63-1.74,7H88.07S88.07,369.54,96.41,365Z"/><polygon class="cls-5" points="88.2 373.39 119.62 373.87 119.52 374.67 88.07 374.67 88.2 373.39"/><polygon class="cls-9" points="203.5 351.59 178.98 364.36 178.1 361.03 203.13 347.96 203.5 351.59"/><polygon class="cls-9" points="204.14 358.53 175.03 349.94 176.07 353.6 204.43 361.94 204.14 358.53"/><polygon class="cls-9" points="98.4 353.75 121.62 365.86 122.45 362.7 98.74 350.31 98.4 353.75"/><polygon class="cls-9" points="97.79 360.33 125.36 352.19 124.38 355.66 97.51 363.56 97.79 360.33"/><circle class="cls-14" cx="119.36" cy="133.39" r="11.55"/><circle class="cls-14" cx="177.76" cy="133.39" r="11.55"/><circle class="cls-15" cx="148.81" cy="166.75" r="7.16"/><circle class="cls-15" cx="158.53" cy="164.71" r="5.11"/><circle class="cls-15" cx="138.59" cy="164.71" r="5.11"/><rect class="cls-15" x="138.59" y="159.6" width="20.45" height="5.11"/><path class="cls-15" d="M136.86,169.52s6.33,4.4,12,4.4,11.45-4.4,11.45-4.4l-4.81-3.78-18.91-.51Z"/><path class="cls-16" d="M136.69,169.32l0,.13.15.07h0s6.33,4.4,12,4.4,11.45-4.4,11.45-4.4h0a5.09,5.09,0,0,0,1-.51c-.35-.17-7.4-3.53-12.86-3.46S136.69,169.32,136.69,169.32Z"/><polygon class="cls-11" points="219.84 231.75 216.84 239.78 220.62 244.1 230.31 232.95 228.72 229.39 219.84 231.75"/><polygon class="cls-8" points="223.75 232.9 216.65 242.55 227.83 255 231.74 253.74 229.44 248.03 238.55 242.73 234.49 232.54 223.75 232.9"/><rect class="cls-17" x="125.78" y="74.35" width="47.49" height="14.12"/><path class="cls-11" d="M140.45,315.26l-37.7,8.55c-.36,2.7-.71,5.33-1,7.86l31.51-.07C136.2,324.49,138.91,318.57,140.45,315.26Z"/><path class="cls-11" d="M199.56,318.57l-3.2-16-36,9.84c2.79,3.39,5.89,10.67,8.83,19.1l32-.07Q200.45,324.92,199.56,318.57Z"/><path class="cls-17" d="M148.88.55C103.16.55,66.1,36.46,66.1,80.77H231.66C231.66,36.46,194.6.55,148.88.55Z"/><path class="cls-18" d="M66.36,74.35c2.26.31,5.53-1.06,10.25-5.74,0,0,12.73,9.22,24.34-4.56A163.6,163.6,0,0,1,78.26,38.89,78,78,0,0,0,66.36,74.35Z"/><path class="cls-6" d="M107.37,57.63S85.12,38.25,76,17.61,40.63-.5,9.27.93c0,0-17.33,7.68,6.62,13.6,0,0-17,10.18,11.73,14.69,0,0-13.92,22.22,16.53,13.28,0,0-20.63,21.6,12.73,9.22,0,0-12.92,16.75,10.82,7.19,0,0,.51,18,15.33,3.27C83,62.19,95.75,71.4,107.37,57.63Z"/><path class="cls-7" d="M99.3,53.39s-18-17.25-25.14-34.84S45.23,1.65,19.2,1.18c0,0-14.54,5.45,5.19,11.63,0,0-14.34,7.54,9.4,12.81,0,0-12,17.69,13.42,11.89,0,0-17.58,16.82,10.35,8.32,0,0-11.07,13.2,8.82,6.53,0,0,0,14.94,12.64,3.53C79,55.88,89.37,64.2,99.3,53.39Z"/><polygon class="cls-9" points="104.66 327.4 202.14 327.18 196.37 298.31 104.66 327.4"/><path class="cls-10" d="M196.22,298.35l-91.55,29,17.15,0c23.36-4.8,58-13.49,75.06-25.45Z"/><polygon class="cls-19" points="111.62 325.26 104.66 327.4 202.14 327.18 202.14 325.26 111.62 325.26"/><polygon class="cls-19" points="111.62 325.26 104.66 327.4 202.14 327.18 202.14 325.26 111.62 325.26"/><path class="cls-20" d="M131.59,325.26h-20l-7,2.14,17.15,0C124.9,326.73,128.18,326,131.59,325.26Z"/><path class="cls-18" d="M218.1,36.76a164.09,164.09,0,0,1-22.37,24.72C207.34,75.25,220.07,66,220.07,66c5.31,5.27,8.78,6.35,11.05,5.55A78.19,78.19,0,0,0,218.1,36.76Z"/><path class="cls-6" d="M189.31,57.63s22.25-19.38,31.37-40S256-.5,287.4.93c0,0,17.33,7.68-6.62,13.6,0,0,17,10.18-11.73,14.69,0,0,13.92,22.22-16.53,13.28,0,0,20.63,21.6-12.73,9.22,0,0,12.92,16.75-10.82,7.19,0,0-.51,18-15.33,3.27C213.65,62.19,200.92,71.4,189.31,57.63Z"/><path class="cls-7" d="M197.37,53.39s18-17.25,25.14-34.84,28.93-16.9,55-17.37c0,0,14.54,5.45-5.19,11.63,0,0,14.34,7.54-9.4,12.81,0,0,12,17.69-13.42,11.89,0,0,17.58,16.82-10.35,8.32,0,0,11.07,13.2-8.82,6.53,0,0,0,14.94-12.64,3.53C217.65,55.88,207.3,64.2,197.37,53.39Z"/><path class="cls-9" d="M109.73,274.56s-7.06,42.35-11.55,53.9c0,0,71.6-10.75,98.69-29.76L192.71,276Z"/><path class="cls-19" d="M98.9,326.43c-.24.75-.48,1.44-.72,2,0,0,71.6-10.75,98.69-29.76l-.31-1.71C170.84,314.76,106.36,325.26,98.9,326.43Z"/><polygon class="cls-21" points="182.9 271.01 179.68 309.86 195.91 309.86 189.95 271.36 182.9 271.01"/><polygon class="cls-10" points="109.67 276.5 192.71 277.97 192.51 276.04 109.91 274.57 109.67 276.5"/><path class="cls-4" d="M111.44,260.45s58.62,7.05,80.44,7.7l.84,7.9-83-1.46Z"/><polygon class="cls-4" points="182.9 267.81 179.68 306.65 195.91 306.65 189.95 268.15 182.9 267.81"/><polygon class="cls-5" points="111.14 262.87 136.69 265.58 110.97 264.22 111.14 262.87"/><polygon class="cls-5" points="110.61 267.09 129.63 267.5 110.38 268.15 110.61 267.09"/><polygon class="cls-5" points="110.08 271.26 132.19 271.36 109.95 272.32 110.08 271.26"/><polygon class="cls-5" points="183.51 276.04 184.81 291.89 185.38 276.04 183.51 276.04"/><polygon class="cls-5" points="187.79 275.96 188.66 287.4 189.7 276.04 187.79 275.96"/><path class="cls-22" d="M181.89,280a9.57,9.57,0,0,0,9.77-.8l-.49-3.19,1.55,0-.84-7.9c-3.85-.11-8.86-.43-14.49-.87a9.56,9.56,0,0,0,.17,8.5l4.68.08Z"/><circle class="cls-4" cx="186.1" cy="271.35" r="7.06"/><path class="cls-11" d="M123.9,91s13.48,25.45,53.16,27c0,0-10.66-11.06-15.77-20.16,19.14,16.31,52.15,31.72,52.15,31.72a90.91,90.91,0,0,1-15.73-36.4c3,4.46,10.54,14.82,19,19.08,0,0-7.34-11.35-7.24-19.26A79.3,79.3,0,0,1,227,113.07a168.86,168.86,0,0,0,1.85-22l-4.23-5.78H123.85Z"/><path class="cls-11" d="M102,91.37c.07,2.14.33,14-2.58,22.76,0,0,18-12.19,24.39-23.1V85.26H89.2L69.45,91a186.91,186.91,0,0,0,3.71,31.44l.38.76C82.79,116.13,94,105.51,102,91.37Z"/><path class="cls-17" d="M67.78,85.26s1.69,27-11,43c0,0,29.29-14.33,45.42-43Z"/><path class="cls-17" d="M123.9,85.26s13.48,25.45,53.16,27c0,0-17.32-18-18.39-27Z"/><path class="cls-17" d="M197.41,85.26s1.77,18.54,16,38.5c0,0-42.78-20-59.18-38.5Z"/><path class="cls-17" d="M231.67,85.26a93.39,93.39,0,0,1,0,30.81S223.91,97.44,207,85.26Z"/><path class="cls-17" d="M196.37,85.26s9.41,15.69,20.39,21.18c0,0-8.63-13.33-7.06-21.18Z"/><path class="cls-17" d="M102,85.26s.64,13.48-2.57,23.1c0,0,18-12.19,24.39-23.1Z"/><polygon class="cls-23" points="94.97 271.36 94.97 314.99 81.5 295.1 81.5 260.45 94.97 271.36"/><rect class="cls-24" x="94.97" y="271.35" width="13.48" height="43.64"/><path class="cls-18" d="M231.67,85.26H181.94a41.88,41.88,0,0,0-10.28-5.13,5.47,5.47,0,0,0-5.44,5.13c0,.11,0,.21,0,.32A5.47,5.47,0,0,0,171.66,91h26.79c-.34-1.49-.58-2.73-.74-3.68.65,1,1.54,2.25,2.6,3.68h9.64a17.62,17.62,0,0,1-.43-3.86c1.56,1.25,3,2.54,4.41,3.86h16.13a5.39,5.39,0,0,0,2.35-.54C232.06,87.21,231.67,85.26,231.67,85.26Z"/><path class="cls-18" d="M132.18,85.26a5.47,5.47,0,0,0-5.44-5.13l-2.89,5.13h.05A34.92,34.92,0,0,0,128,90.89a5.47,5.47,0,0,0,4.23-5.31C132.19,85.47,132.18,85.36,132.18,85.26Z"/><path class="cls-18" d="M102.24,85.26H67.78s.14,2.23,0,5.78H98.69q1.75-2.63,3.35-5.44c0,.77.07,2.78,0,5.44h17.53a39.36,39.36,0,0,0,4.28-5.78Z"/><rect class="cls-13" x="166.2" y="74.35" width="69.31" height="10.91" rx="5.45" ry="5.45"/><rect class="cls-13" x="62.25" y="74.35" width="69.95" height="10.91" rx="5.45" ry="5.45"/><polygon class="cls-25" points="81.5 260.45 94.33 260.45 108.45 271.36 94.97 271.36 81.5 260.45"/><rect class="cls-26" x="87.27" y="252.1" width="5.13" height="10.27"/><polygon class="cls-27" points="85.99 261.73 87.27 262.37 87.27 252.1 85.99 251.46 85.99 261.73"/><polygon class="cls-11" points="98.6 236.75 103.53 243.76 100.97 248.9 88.77 240.55 89.42 236.7 98.6 236.75"/><polygon class="cls-8" points="97.96 239.96 105.07 249.61 100.3 256.92 96.39 255.67 93.56 260.86 81.88 253.64 87.23 239.6 97.96 239.96"/><rect class="cls-11" x="90.08" y="247.82" width="7.97" height="7.97" transform="translate(49.62 516.9) rotate(-150)"/><rect class="cls-8" x="91.6" y="249.34" width="4.93" height="4.93" transform="translate(49.62 516.9) rotate(-150)"/><polygon class="cls-11" points="229.73 248.25 227.17 243.76 236.51 237.61 238.72 242.48 229.73 248.25"/><rect class="cls-26" x="96.9" y="252.1" width="5.13" height="17.33"/><polygon class="cls-27" points="95.62 268.79 96.9 269.43 96.9 252.1 95.62 251.46 95.62 257.25 95.62 268.79"/><polygon class="cls-27" points="91.17 254.73 91.12 249.54 95.62 251.46 95.62 257.24 91.17 254.73"/><polygon class="cls-27" points="102.03 252.1 95.42 249.54 91.12 249.54 96.9 252.1 102.03 252.1"/><g class="cls-28"><polygon class="cls-29" points="250.27 286.61 155.41 286.61 188.66 218.73 283.52 218.73 250.27 286.61"/><line class="cls-30" x1="199.05" y1="223.08" x2="170.06" y2="282.26"/><line class="cls-30" x1="206.85" y1="223.08" x2="177.86" y2="282.26"/><line class="cls-30" x1="214.65" y1="223.08" x2="185.65" y2="282.26"/><line class="cls-30" x1="222.45" y1="223.08" x2="193.45" y2="282.26"/><line class="cls-30" x1="230.24" y1="223.08" x2="201.25" y2="282.26"/><line class="cls-30" x1="238.04" y1="223.08" x2="209.05" y2="282.26"/><line class="cls-30" x1="245.84" y1="223.08" x2="216.84" y2="282.26"/><line class="cls-30" x1="253.63" y1="223.08" x2="224.64" y2="282.26"/><line class="cls-30" x1="261.43" y1="223.08" x2="232.44" y2="282.26"/><line class="cls-30" x1="269.23" y1="223.08" x2="240.23" y2="282.26"/><line class="cls-30" x1="189.02" y1="229.81" x2="272.31" y2="229.81"/><line class="cls-30" x1="185.2" y1="237.61" x2="268.49" y2="237.61"/><line class="cls-30" x1="181.38" y1="245.4" x2="264.67" y2="245.4"/><line class="cls-30" x1="177.56" y1="253.2" x2="260.85" y2="253.2"/><line class="cls-30" x1="173.74" y1="261" x2="257.03" y2="261"/><line class="cls-30" x1="169.92" y1="268.8" x2="253.21" y2="268.8"/><line class="cls-30" x1="166.1" y1="276.59" x2="249.39" y2="276.59"/><path class="cls-31" d="M245.36,242.83h-.17c-6.39,0-14.11,5.18-17.24,11.57s-.49,11.57,5.9,11.57,14.11-5.18,17.24-11.57l.08-.17h-11.4Z"/><path class="cls-32" d="M250.5,239.37l-5.58,11.4h11.4C259.29,244.52,256.71,239.47,250.5,239.37Z"/><polygon class="cls-33" points="187.94 266.36 179.15 266.36 188.75 246.75 197.54 246.75 187.94 266.36"/><polygon class="cls-33" points="199.09 266.36 190.3 266.36 203.72 238.98 212.51 238.98 199.09 266.36"/><polygon class="cls-33" points="210.25 266.36 201.46 266.36 209.25 250.47 218.04 250.47 210.25 266.36"/></g><path class="cls-18" d="M111.66,33.92s.64,13.48-2.57,23.1c0,0,18-12.19,24.39-23.1Z"/><path class="cls-17" d="M114.87,28.79s.64,13.48-2.57,23.1c0,0,18-12.19,24.39-23.1Z"/><path class="cls-18" d="M173.91,46.11s9.41,15.69,20.39,21.18c0,0-8.63-13.33-7.06-21.18Z"/><path class="cls-17" d="M174.4,44.78s7.17,12,15.54,16.14c0,0-6.58-10.16-5.38-16.14Z"/></g></g></svg>